<svg xmlns="http://www.w3.org/2000/svg" width="918" height="1171" viewBox="0 0 918 1171"><rect width="100%" height="100%" fill="#ffffff"/><text x="24" y="28" font-size="18" font-weight="700" font-family="ui-sans-serif, system-ui, sans-serif" fill="#111">Corne v4 keymap</text><text x="24.0" y="40.0" font-size="15" font-weight="600" font-family="ui-sans-serif, system-ui, sans-serif" fill="#111">Layer 0</text><rect x="24.0" y="67.4" width="54.0" height="54.0" rx="6" ry="6" fill="#f5f5f7" stroke="#777" stroke-width="1"/><text x="51.0" y="98.4" font-size="11" font-family="ui-sans-serif, system-ui, sans-serif" fill="#222" text-anchor="middle">Tab</text><rect x="82.0" y="67.4" width="54.0" height="54.0" rx="6" ry="6" fill="#f5f5f7" stroke="#777" stroke-width="1"/><text x="109.0" y="98.4" font-size="11" font-family="ui-sans-serif, system-ui, sans-serif" fill="#222" text-anchor="middle">Q</text><rect x="140.0" y="55.8" width="54.0" height="54.0" rx="6" ry="6" fill="#f5f5f7" stroke="#777" stroke-width="1"/><text x="167.0" y="86.8" font-size="11" font-family="ui-sans-serif, system-ui, sans-serif" fill="#222" text-anchor="middle">W</text><rect x="198.0" y="50.0" width="54.0" height="54.0" rx="6" ry="6" fill="#f5f5f7" stroke="#777" stroke-width="1"/><text x="225.0" y="81.0" font-size="11" font-family="ui-sans-serif, system-ui, sans-serif" fill="#222" text-anchor="middle">E</text><rect x="256.0" y="55.8" width="54.0" height="54.0" rx="6" ry="6" fill="#f5f5f7" stroke="#777" stroke-width="1"/><text x="283.0" y="86.8" font-size="11" font-family="ui-sans-serif, system-ui, sans-serif" fill="#222" text-anchor="middle">R</text><rect x="314.0" y="61.6" width="54.0" height="54.0" rx="6" ry="6" fill="#f5f5f7" stroke="#777" stroke-width="1"/><text x="341.0" y="92.6" font-size="11" font-family="ui-sans-serif, system-ui, sans-serif" fill="#222" text-anchor="middle">T</text><rect x="372.0" y="90.6" width="54.0" height="54.0" rx="6" ry="6" fill="#f5f5f7" stroke="#777" stroke-width="1"/><text x="399.0" y="121.6" font-size="9" font-family="ui-sans-serif, system-ui, sans-serif" fill="#222" text-anchor="middle">Ctl/Esc</text><rect x="488.0" y="90.6" width="54.0" height="54.0" rx="6" ry="6" fill="#f5f5f7" stroke="#777" stroke-width="1"/><text x="515.0" y="121.6" font-size="11" font-family="ui-sans-serif, system-ui, sans-serif" fill="#222" text-anchor="middle">Click</text><rect x="546.0" y="61.6" width="54.0" height="54.0" rx="6" ry="6" fill="#f5f5f7" stroke="#777" stroke-width="1"/><text x="573.0" y="92.6" font-size="11" font-family="ui-sans-serif, system-ui, sans-serif" fill="#222" text-anchor="middle">Y</text><rect x="604.0" y="55.8" width="54.0" height="54.0" rx="6" ry="6" fill="#f5f5f7" stroke="#777" stroke-width="1"/><text x="631.0" y="86.8" font-size="11" font-family="ui-sans-serif, system-ui, sans-serif" fill="#222" text-anchor="middle">U</text><rect x="662.0" y="50.0" width="54.0" height="54.0" rx="6" ry="6" fill="#f5f5f7" stroke="#777" stroke-width="1"/><text x="689.0" y="81.0" font-size="11" font-family="ui-sans-serif, system-ui, sans-serif" fill="#222" text-anchor="middle">I</text><rect x="720.0" y="55.8" width="54.0" height="54.0" rx="6" ry="6" fill="#f5f5f7" stroke="#777" stroke-width="1"/><text x="747.0" y="86.8" font-size="11" font-family="ui-sans-serif, system-ui, sans-serif" fill="#222" text-anchor="middle">O</text><rect x="778.0" y="67.4" width="54.0" height="54.0" rx="6" ry="6" fill="#f5f5f7" stroke="#777" stroke-width="1"/><text x="805.0" y="98.4" font-size="11" font-family="ui-sans-serif, system-ui, sans-serif" fill="#222" text-anchor="middle">P</text><rect x="836.0" y="67.4" width="54.0" height="54.0" rx="6" ry="6" fill="#f5f5f7" stroke="#777" stroke-width="1"/><text x="863.0" y="98.4" font-size="11" font-family="ui-sans-serif, system-ui, sans-serif" fill="#222" text-anchor="middle">-</text><rect x="24.0" y="142.8" width="54.0" height="54.0" rx="6" ry="6" fill="#f5f5f7" stroke="#777" stroke-width="1"/><text x="51.0" y="173.8" font-size="11" font-family="ui-sans-serif, system-ui, sans-serif" fill="#222" text-anchor="middle">Sft</text><rect x="82.0" y="142.8" width="54.0" height="54.0" rx="6" ry="6" fill="#f5f5f7" stroke="#777" stroke-width="1"/><text x="109.0" y="173.8" font-size="11" font-family="ui-sans-serif, system-ui, sans-serif" fill="#222" text-anchor="middle">A</text><rect x="140.0" y="131.2" width="54.0" height="54.0" rx="6" ry="6" fill="#f5f5f7" stroke="#777" stroke-width="1"/><text x="167.0" y="162.2" font-size="11" font-family="ui-sans-serif, system-ui, sans-serif" fill="#222" text-anchor="middle">S</text><rect x="198.0" y="125.4" width="54.0" height="54.0" rx="6" ry="6" fill="#f5f5f7" stroke="#777" stroke-width="1"/><text x="225.0" y="156.4" font-size="11" font-family="ui-sans-serif, system-ui, sans-serif" fill="#222" text-anchor="middle">D</text><rect x="256.0" y="131.2" width="54.0" height="54.0" rx="6" ry="6" fill="#f5f5f7" stroke="#777" stroke-width="1"/><text x="283.0" y="162.2" font-size="11" font-family="ui-sans-serif, system-ui, sans-serif" fill="#222" text-anchor="middle">F</text><rect x="314.0" y="137.0" width="54.0" height="54.0" rx="6" ry="6" fill="#f5f5f7" stroke="#777" stroke-width="1"/><text x="341.0" y="168.0" font-size="11" font-family="ui-sans-serif, system-ui, sans-serif" fill="#222" text-anchor="middle">G</text><rect x="372.0" y="166.0" width="54.0" height="54.0" rx="6" ry="6" fill="#f5f5f7" stroke="#777" stroke-width="1"/><text x="399.0" y="197.0" font-size="11" font-family="ui-sans-serif, system-ui, sans-serif" fill="#222" text-anchor="middle">かな</text><rect x="488.0" y="166.0" width="54.0" height="54.0" rx="6" ry="6" fill="#f5f5f7" stroke="#777" stroke-width="1"/><text x="515.0" y="197.0" font-size="11" font-family="ui-sans-serif, system-ui, sans-serif" fill="#222" text-anchor="middle">Caps</text><rect x="546.0" y="137.0" width="54.0" height="54.0" rx="6" ry="6" fill="#f5f5f7" stroke="#777" stroke-width="1"/><text x="573.0" y="168.0" font-size="11" font-family="ui-sans-serif, system-ui, sans-serif" fill="#222" text-anchor="middle">H</text><rect x="604.0" y="131.2" width="54.0" height="54.0" rx="6" ry="6" fill="#f5f5f7" stroke="#777" stroke-width="1"/><text x="631.0" y="162.2" font-size="11" font-family="ui-sans-serif, system-ui, sans-serif" fill="#222" text-anchor="middle">J</text><rect x="662.0" y="125.4" width="54.0" height="54.0" rx="6" ry="6" fill="#f5f5f7" stroke="#777" stroke-width="1"/><text x="689.0" y="156.4" font-size="11" font-family="ui-sans-serif, system-ui, sans-serif" fill="#222" text-anchor="middle">K</text><rect x="720.0" y="131.2" width="54.0" height="54.0" rx="6" ry="6" fill="#f5f5f7" stroke="#777" stroke-width="1"/><text x="747.0" y="162.2" font-size="11" font-family="ui-sans-serif, system-ui, sans-serif" fill="#222" text-anchor="middle">L</text><rect x="778.0" y="142.8" width="54.0" height="54.0" rx="6" ry="6" fill="#f5f5f7" stroke="#777" stroke-width="1"/><text x="805.0" y="173.8" font-size="11" font-family="ui-sans-serif, system-ui, sans-serif" fill="#222" text-anchor="middle">;</text><rect x="836.0" y="142.8" width="54.0" height="54.0" rx="6" ry="6" fill="#f5f5f7" stroke="#777" stroke-width="1"/><text x="863.0" y="173.8" font-size="11" font-family="ui-sans-serif, system-ui, sans-serif" fill="#222" text-anchor="middle">&#x27;</text><rect x="24.0" y="218.2" width="54.0" height="54.0" rx="6" ry="6" fill="#f5f5f7" stroke="#777" stroke-width="1"/><text x="51.0" y="249.2" font-size="11" font-family="ui-sans-serif, system-ui, sans-serif" fill="#222" text-anchor="middle">GUI</text><rect x="82.0" y="218.2" width="54.0" height="54.0" rx="6" ry="6" fill="#f5f5f7" stroke="#777" stroke-width="1"/><text x="109.0" y="249.2" font-size="11" font-family="ui-sans-serif, system-ui, sans-serif" fill="#222" text-anchor="middle">Z</text><rect x="140.0" y="206.6" width="54.0" height="54.0" rx="6" ry="6" fill="#f5f5f7" stroke="#777" stroke-width="1"/><text x="167.0" y="237.6" font-size="11" font-family="ui-sans-serif, system-ui, sans-serif" fill="#222" text-anchor="middle">X</text><rect x="198.0" y="200.8" width="54.0" height="54.0" rx="6" ry="6" fill="#f5f5f7" stroke="#777" stroke-width="1"/><text x="225.0" y="231.8" font-size="11" font-family="ui-sans-serif, system-ui, sans-serif" fill="#222" text-anchor="middle">C</text><rect x="256.0" y="206.6" width="54.0" height="54.0" rx="6" ry="6" fill="#f5f5f7" stroke="#777" stroke-width="1"/><text x="283.0" y="237.6" font-size="11" font-family="ui-sans-serif, system-ui, sans-serif" fill="#222" text-anchor="middle">V</text><rect x="314.0" y="212.4" width="54.0" height="54.0" rx="6" ry="6" fill="#f5f5f7" stroke="#777" stroke-width="1"/><text x="341.0" y="243.4" font-size="11" font-family="ui-sans-serif, system-ui, sans-serif" fill="#222" text-anchor="middle">B</text><rect x="546.0" y="206.6" width="54.0" height="54.0" rx="6" ry="6" fill="#f5f5f7" stroke="#777" stroke-width="1"/><text x="573.0" y="237.6" font-size="11" font-family="ui-sans-serif, system-ui, sans-serif" fill="#222" text-anchor="middle">N</text><rect x="604.0" y="200.8" width="54.0" height="54.0" rx="6" ry="6" fill="#f5f5f7" stroke="#777" stroke-width="1"/><text x="631.0" y="231.8" font-size="11" font-family="ui-sans-serif, system-ui, sans-serif" fill="#222" text-anchor="middle">M</text><rect x="662.0" y="195.0" width="54.0" height="54.0" rx="6" ry="6" fill="#f5f5f7" stroke="#777" stroke-width="1"/><text x="689.0" y="226.0" font-size="11" font-family="ui-sans-serif, system-ui, sans-serif" fill="#222" text-anchor="middle">,</text><rect x="720.0" y="200.8" width="54.0" height="54.0" rx="6" ry="6" fill="#f5f5f7" stroke="#777" stroke-width="1"/><text x="747.0" y="231.8" font-size="11" font-family="ui-sans-serif, system-ui, sans-serif" fill="#222" text-anchor="middle">.</text><rect x="778.0" y="212.4" width="54.0" height="54.0" rx="6" ry="6" fill="#f5f5f7" stroke="#777" stroke-width="1"/><text x="805.0" y="243.4" font-size="11" font-family="ui-sans-serif, system-ui, sans-serif" fill="#222" text-anchor="middle">/</text><rect x="836.0" y="212.4" width="54.0" height="54.0" rx="6" ry="6" fill="#f5f5f7" stroke="#777" stroke-width="1"/><text x="863.0" y="243.4" font-size="11" font-family="ui-sans-serif, system-ui, sans-serif" fill="#222" text-anchor="middle">[</text><rect x="256.0" y="293.6" width="54.0" height="54.0" rx="6" ry="6" fill="#f5f5f7" stroke="#777" stroke-width="1"/><text x="283.0" y="324.6" font-size="11" font-family="ui-sans-serif, system-ui, sans-serif" fill="#222" text-anchor="middle">Ctrl</text><rect x="314.0" y="293.6" width="54.0" height="54.0" rx="6" ry="6" fill="#e8f0fe" stroke="#4a78c0" stroke-width="1"/><text x="341.0" y="324.6" font-size="9" font-family="ui-sans-serif, system-ui, sans-serif" fill="#222" text-anchor="middle">L1/Spc</text><rect x="372.0" y="264.6" width="54.0" height="83.0" rx="6" ry="6" fill="#f5f5f7" stroke="#777" stroke-width="1"/><text x="399.0" y="310.1" font-size="11" font-family="ui-sans-serif, system-ui, sans-serif" fill="#222" text-anchor="middle">BSpc</text><rect x="488.0" y="264.6" width="54.0" height="83.0" rx="6" ry="6" fill="#f5f5f7" stroke="#777" stroke-width="1"/><text x="515.0" y="310.1" font-size="11" font-family="ui-sans-serif, system-ui, sans-serif" fill="#222" text-anchor="middle">Ent</text><rect x="546.0" y="293.6" width="54.0" height="54.0" rx="6" ry="6" fill="#e8f0fe" stroke="#4a78c0" stroke-width="1"/><text x="573.0" y="324.6" font-size="9" font-family="ui-sans-serif, system-ui, sans-serif" fill="#222" text-anchor="middle">L2/Tab</text><rect x="604.0" y="293.6" width="54.0" height="54.0" rx="6" ry="6" fill="#f5f5f7" stroke="#777" stroke-width="1"/><text x="631.0" y="324.6" font-size="11" font-family="ui-sans-serif, system-ui, sans-serif" fill="#222" text-anchor="middle">Alt</text><text x="24.0" y="359.6" font-size="11" font-family="ui-sans-serif, system-ui, sans-serif" fill="#555">Encoder: #0 ↺Wh↓ / ↻Wh↑, #1 ↺Wh↓ / ↻Wh↑, #2 ↺Wh↓ / ↻Wh↑, #3 ↺Wh↓ / ↻Wh↑</text><text x="24.0" y="427.6" font-size="15" font-weight="600" font-family="ui-sans-serif, system-ui, sans-serif" fill="#111">Layer 1</text><rect x="24.0" y="455.0" width="54.0" height="54.0" rx="6" ry="6" fill="#f5f5f7" stroke="#777" stroke-width="1"/><text x="51.0" y="486.0" font-size="11" font-family="ui-sans-serif, system-ui, sans-serif" fill="#222" text-anchor="middle">Tab</text><rect x="82.0" y="455.0" width="54.0" height="54.0" rx="6" ry="6" fill="#f5f5f7" stroke="#777" stroke-width="1"/><text x="109.0" y="486.0" font-size="11" font-family="ui-sans-serif, system-ui, sans-serif" fill="#222" text-anchor="middle">F1</text><rect x="140.0" y="443.4" width="54.0" height="54.0" rx="6" ry="6" fill="#f5f5f7" stroke="#777" stroke-width="1"/><text x="167.0" y="474.4" font-size="11" font-family="ui-sans-serif, system-ui, sans-serif" fill="#222" text-anchor="middle">F2</text><rect x="198.0" y="437.6" width="54.0" height="54.0" rx="6" ry="6" fill="#f5f5f7" stroke="#777" stroke-width="1"/><text x="225.0" y="468.6" font-size="11" font-family="ui-sans-serif, system-ui, sans-serif" fill="#222" text-anchor="middle">F3</text><rect x="256.0" y="443.4" width="54.0" height="54.0" rx="6" ry="6" fill="#f5f5f7" stroke="#777" stroke-width="1"/><text x="283.0" y="474.4" font-size="11" font-family="ui-sans-serif, system-ui, sans-serif" fill="#222" text-anchor="middle">F4</text><rect x="314.0" y="449.2" width="54.0" height="54.0" rx="6" ry="6" fill="#f5f5f7" stroke="#777" stroke-width="1"/><text x="341.0" y="480.2" font-size="11" font-family="ui-sans-serif, system-ui, sans-serif" fill="#222" text-anchor="middle">F5</text><rect x="372.0" y="478.2" width="54.0" height="54.0" rx="6" ry="6" fill="#fafafa" stroke="#777" stroke-width="1"/><text x="399.0" y="509.2" font-size="11" font-family="ui-sans-serif, system-ui, sans-serif" fill="#bbb" text-anchor="middle">▽</text><rect x="488.0" y="478.2" width="54.0" height="54.0" rx="6" ry="6" fill="#fafafa" stroke="#777" stroke-width="1"/><text x="515.0" y="509.2" font-size="11" font-family="ui-sans-serif, system-ui, sans-serif" fill="#bbb" text-anchor="middle">▽</text><rect x="546.0" y="449.2" width="54.0" height="54.0" rx="6" ry="6" fill="#f5f5f7" stroke="#777" stroke-width="1"/><text x="573.0" y="480.2" font-size="11" font-family="ui-sans-serif, system-ui, sans-serif" fill="#222" text-anchor="middle">/</text><rect x="604.0" y="443.4" width="54.0" height="54.0" rx="6" ry="6" fill="#f5f5f7" stroke="#777" stroke-width="1"/><text x="631.0" y="474.4" font-size="11" font-family="ui-sans-serif, system-ui, sans-serif" fill="#222" text-anchor="middle">-</text><rect x="662.0" y="437.6" width="54.0" height="54.0" rx="6" ry="6" fill="#f5f5f7" stroke="#777" stroke-width="1"/><text x="689.0" y="468.6" font-size="11" font-family="ui-sans-serif, system-ui, sans-serif" fill="#222" text-anchor="middle">&#x27;</text><rect x="720.0" y="443.4" width="54.0" height="54.0" rx="6" ry="6" fill="#f5f5f7" stroke="#777" stroke-width="1"/><text x="747.0" y="474.4" font-size="11" font-family="ui-sans-serif, system-ui, sans-serif" fill="#222" text-anchor="middle">;</text><rect x="778.0" y="455.0" width="54.0" height="54.0" rx="6" ry="6" fill="#f5f5f7" stroke="#777" stroke-width="1"/><text x="805.0" y="486.0" font-size="11" font-family="ui-sans-serif, system-ui, sans-serif" fill="#222" text-anchor="middle">¥</text><rect x="836.0" y="455.0" width="54.0" height="54.0" rx="6" ry="6" fill="#f5f5f7" stroke="#777" stroke-width="1"/><text x="863.0" y="486.0" font-size="11" font-family="ui-sans-serif, system-ui, sans-serif" fill="#222" text-anchor="middle">=</text><rect x="24.0" y="530.4" width="54.0" height="54.0" rx="6" ry="6" fill="#f5f5f7" stroke="#777" stroke-width="1"/><text x="51.0" y="561.4" font-size="11" font-family="ui-sans-serif, system-ui, sans-serif" fill="#222" text-anchor="middle">Alt</text><rect x="82.0" y="530.4" width="54.0" height="54.0" rx="6" ry="6" fill="#f5f5f7" stroke="#777" stroke-width="1"/><text x="109.0" y="561.4" font-size="11" font-family="ui-sans-serif, system-ui, sans-serif" fill="#222" text-anchor="middle">1</text><rect x="140.0" y="518.8" width="54.0" height="54.0" rx="6" ry="6" fill="#f5f5f7" stroke="#777" stroke-width="1"/><text x="167.0" y="549.8" font-size="11" font-family="ui-sans-serif, system-ui, sans-serif" fill="#222" text-anchor="middle">2</text><rect x="198.0" y="513.0" width="54.0" height="54.0" rx="6" ry="6" fill="#f5f5f7" stroke="#777" stroke-width="1"/><text x="225.0" y="544.0" font-size="11" font-family="ui-sans-serif, system-ui, sans-serif" fill="#222" text-anchor="middle">3</text><rect x="256.0" y="518.8" width="54.0" height="54.0" rx="6" ry="6" fill="#f5f5f7" stroke="#777" stroke-width="1"/><text x="283.0" y="549.8" font-size="11" font-family="ui-sans-serif, system-ui, sans-serif" fill="#222" text-anchor="middle">4</text><rect x="314.0" y="524.6" width="54.0" height="54.0" rx="6" ry="6" fill="#f5f5f7" stroke="#777" stroke-width="1"/><text x="341.0" y="555.6" font-size="11" font-family="ui-sans-serif, system-ui, sans-serif" fill="#222" text-anchor="middle">5</text><rect x="372.0" y="553.6" width="54.0" height="54.0" rx="6" ry="6" fill="#fafafa" stroke="#777" stroke-width="1"/><text x="399.0" y="584.6" font-size="11" font-family="ui-sans-serif, system-ui, sans-serif" fill="#bbb" text-anchor="middle">▽</text><rect x="488.0" y="553.6" width="54.0" height="54.0" rx="6" ry="6" fill="#f5f5f7" stroke="#777" stroke-width="1"/><text x="515.0" y="584.6" font-size="11" font-family="ui-sans-serif, system-ui, sans-serif" fill="#222" text-anchor="middle">Ins</text><rect x="546.0" y="524.6" width="54.0" height="54.0" rx="6" ry="6" fill="#f5f5f7" stroke="#777" stroke-width="1"/><text x="573.0" y="555.6" font-size="11" font-family="ui-sans-serif, system-ui, sans-serif" fill="#222" text-anchor="middle">6</text><rect x="604.0" y="518.8" width="54.0" height="54.0" rx="6" ry="6" fill="#f5f5f7" stroke="#777" stroke-width="1"/><text x="631.0" y="549.8" font-size="11" font-family="ui-sans-serif, system-ui, sans-serif" fill="#222" text-anchor="middle">7</text><rect x="662.0" y="513.0" width="54.0" height="54.0" rx="6" ry="6" fill="#f5f5f7" stroke="#777" stroke-width="1"/><text x="689.0" y="544.0" font-size="11" font-family="ui-sans-serif, system-ui, sans-serif" fill="#222" text-anchor="middle">8</text><rect x="720.0" y="518.8" width="54.0" height="54.0" rx="6" ry="6" fill="#f5f5f7" stroke="#777" stroke-width="1"/><text x="747.0" y="549.8" font-size="11" font-family="ui-sans-serif, system-ui, sans-serif" fill="#222" text-anchor="middle">9</text><rect x="778.0" y="530.4" width="54.0" height="54.0" rx="6" ry="6" fill="#f5f5f7" stroke="#777" stroke-width="1"/><text x="805.0" y="561.4" font-size="11" font-family="ui-sans-serif, system-ui, sans-serif" fill="#222" text-anchor="middle">0</text><rect x="836.0" y="530.4" width="54.0" height="54.0" rx="6" ry="6" fill="#f5f5f7" stroke="#777" stroke-width="1"/><text x="863.0" y="561.4" font-size="11" font-family="ui-sans-serif, system-ui, sans-serif" fill="#222" text-anchor="middle">=</text><rect x="24.0" y="605.8" width="54.0" height="54.0" rx="6" ry="6" fill="#f5f5f7" stroke="#777" stroke-width="1"/><text x="51.0" y="636.8" font-size="11" font-family="ui-sans-serif, system-ui, sans-serif" fill="#222" text-anchor="middle">Sft</text><rect x="82.0" y="605.8" width="54.0" height="54.0" rx="6" ry="6" fill="#f5f5f7" stroke="#777" stroke-width="1"/><text x="109.0" y="636.8" font-size="11" font-family="ui-sans-serif, system-ui, sans-serif" fill="#222" text-anchor="middle">F6</text><rect x="140.0" y="594.2" width="54.0" height="54.0" rx="6" ry="6" fill="#f5f5f7" stroke="#777" stroke-width="1"/><text x="167.0" y="625.2" font-size="11" font-family="ui-sans-serif, system-ui, sans-serif" fill="#222" text-anchor="middle">F7</text><rect x="198.0" y="588.4" width="54.0" height="54.0" rx="6" ry="6" fill="#f5f5f7" stroke="#777" stroke-width="1"/><text x="225.0" y="619.4" font-size="11" font-family="ui-sans-serif, system-ui, sans-serif" fill="#222" text-anchor="middle">F8</text><rect x="256.0" y="594.2" width="54.0" height="54.0" rx="6" ry="6" fill="#f5f5f7" stroke="#777" stroke-width="1"/><text x="283.0" y="625.2" font-size="11" font-family="ui-sans-serif, system-ui, sans-serif" fill="#222" text-anchor="middle">F9</text><rect x="314.0" y="600.0" width="54.0" height="54.0" rx="6" ry="6" fill="#f5f5f7" stroke="#777" stroke-width="1"/><text x="341.0" y="631.0" font-size="11" font-family="ui-sans-serif, system-ui, sans-serif" fill="#222" text-anchor="middle">F10</text><rect x="546.0" y="594.2" width="54.0" height="54.0" rx="6" ry="6" fill="#f5f5f7" stroke="#777" stroke-width="1"/><text x="573.0" y="625.2" font-size="11" font-family="ui-sans-serif, system-ui, sans-serif" fill="#222" text-anchor="middle">F11</text><rect x="604.0" y="588.4" width="54.0" height="54.0" rx="6" ry="6" fill="#f5f5f7" stroke="#777" stroke-width="1"/><text x="631.0" y="619.4" font-size="11" font-family="ui-sans-serif, system-ui, sans-serif" fill="#222" text-anchor="middle">F12</text><rect x="662.0" y="582.6" width="54.0" height="54.0" rx="6" ry="6" fill="#fafafa" stroke="#777" stroke-width="1"/><text x="689.0" y="613.6" font-size="11" font-family="ui-sans-serif, system-ui, sans-serif" fill="#bbb" text-anchor="middle">▽</text><rect x="720.0" y="588.4" width="54.0" height="54.0" rx="6" ry="6" fill="#fafafa" stroke="#777" stroke-width="1"/><text x="747.0" y="619.4" font-size="11" font-family="ui-sans-serif, system-ui, sans-serif" fill="#bbb" text-anchor="middle">▽</text><rect x="778.0" y="600.0" width="54.0" height="54.0" rx="6" ry="6" fill="#fafafa" stroke="#777" stroke-width="1"/><text x="805.0" y="631.0" font-size="11" font-family="ui-sans-serif, system-ui, sans-serif" fill="#bbb" text-anchor="middle">▽</text><rect x="836.0" y="600.0" width="54.0" height="54.0" rx="6" ry="6" fill="#f5f5f7" stroke="#777" stroke-width="1"/><text x="863.0" y="631.0" font-size="11" font-family="ui-sans-serif, system-ui, sans-serif" fill="#222" text-anchor="middle">GUI</text><rect x="256.0" y="681.2" width="54.0" height="54.0" rx="6" ry="6" fill="#f5f5f7" stroke="#777" stroke-width="1"/><text x="283.0" y="712.2" font-size="11" font-family="ui-sans-serif, system-ui, sans-serif" fill="#222" text-anchor="middle">Ctrl</text><rect x="314.0" y="681.2" width="54.0" height="54.0" rx="6" ry="6" fill="#fafafa" stroke="#777" stroke-width="1"/><text x="341.0" y="712.2" font-size="11" font-family="ui-sans-serif, system-ui, sans-serif" fill="#bbb" text-anchor="middle">▽</text><rect x="372.0" y="652.2" width="54.0" height="83.0" rx="6" ry="6" fill="#f5f5f7" stroke="#777" stroke-width="1"/><text x="399.0" y="697.7" font-size="11" font-family="ui-sans-serif, system-ui, sans-serif" fill="#222" text-anchor="middle">Ms↑</text><rect x="488.0" y="652.2" width="54.0" height="83.0" rx="6" ry="6" fill="#f5f5f7" stroke="#777" stroke-width="1"/><text x="515.0" y="697.7" font-size="11" font-family="ui-sans-serif, system-ui, sans-serif" fill="#222" text-anchor="middle">Ms↓</text><rect x="546.0" y="681.2" width="54.0" height="54.0" rx="6" ry="6" fill="#fafafa" stroke="#777" stroke-width="1"/><text x="573.0" y="712.2" font-size="11" font-family="ui-sans-serif, system-ui, sans-serif" fill="#bbb" text-anchor="middle">▽</text><rect x="604.0" y="681.2" width="54.0" height="54.0" rx="6" ry="6" fill="#f5f5f7" stroke="#777" stroke-width="1"/><text x="631.0" y="712.2" font-size="11" font-family="ui-sans-serif, system-ui, sans-serif" fill="#222" text-anchor="middle">Spc</text><text x="24.0" y="795.2" font-size="15" font-weight="600" font-family="ui-sans-serif, system-ui, sans-serif" fill="#111">Layer 2</text><rect x="24.0" y="822.6" width="54.0" height="54.0" rx="6" ry="6" fill="#f5f5f7" stroke="#777" stroke-width="1"/><text x="51.0" y="853.6" font-size="11" font-family="ui-sans-serif, system-ui, sans-serif" fill="#222" text-anchor="middle">Tab</text><rect x="82.0" y="822.6" width="54.0" height="54.0" rx="6" ry="6" fill="#f5f5f7" stroke="#777" stroke-width="1"/><text x="109.0" y="853.6" font-size="11" font-family="ui-sans-serif, system-ui, sans-serif" fill="#222" text-anchor="middle">⇧1</text><rect x="140.0" y="811.0" width="54.0" height="54.0" rx="6" ry="6" fill="#f5f5f7" stroke="#777" stroke-width="1"/><text x="167.0" y="842.0" font-size="11" font-family="ui-sans-serif, system-ui, sans-serif" fill="#222" text-anchor="middle">⇧2</text><rect x="198.0" y="805.2" width="54.0" height="54.0" rx="6" ry="6" fill="#f5f5f7" stroke="#777" stroke-width="1"/><text x="225.0" y="836.2" font-size="11" font-family="ui-sans-serif, system-ui, sans-serif" fill="#222" text-anchor="middle">⇧3</text><rect x="256.0" y="811.0" width="54.0" height="54.0" rx="6" ry="6" fill="#f5f5f7" stroke="#777" stroke-width="1"/><text x="283.0" y="842.0" font-size="11" font-family="ui-sans-serif, system-ui, sans-serif" fill="#222" text-anchor="middle">⇧4</text><rect x="314.0" y="816.8" width="54.0" height="54.0" rx="6" ry="6" fill="#f5f5f7" stroke="#777" stroke-width="1"/><text x="341.0" y="847.8" font-size="11" font-family="ui-sans-serif, system-ui, sans-serif" fill="#222" text-anchor="middle">⇧5</text><rect x="372.0" y="845.8" width="54.0" height="54.0" rx="6" ry="6" fill="#f5f5f7" stroke="#777" stroke-width="1"/><text x="399.0" y="876.8" font-size="11" font-family="ui-sans-serif, system-ui, sans-serif" fill="#222" text-anchor="middle">Ctrl</text><rect x="488.0" y="845.8" width="54.0" height="54.0" rx="6" ry="6" fill="#f5f5f7" stroke="#777" stroke-width="1"/><text x="515.0" y="876.8" font-size="11" font-family="ui-sans-serif, system-ui, sans-serif" fill="#222" text-anchor="middle">Ctrl</text><rect x="546.0" y="816.8" width="54.0" height="54.0" rx="6" ry="6" fill="#f5f5f7" stroke="#777" stroke-width="1"/><text x="573.0" y="847.8" font-size="11" font-family="ui-sans-serif, system-ui, sans-serif" fill="#222" text-anchor="middle">⇧6</text><rect x="604.0" y="811.0" width="54.0" height="54.0" rx="6" ry="6" fill="#f5f5f7" stroke="#777" stroke-width="1"/><text x="631.0" y="842.0" font-size="11" font-family="ui-sans-serif, system-ui, sans-serif" fill="#222" text-anchor="middle">⇧7</text><rect x="662.0" y="805.2" width="54.0" height="54.0" rx="6" ry="6" fill="#f5f5f7" stroke="#777" stroke-width="1"/><text x="689.0" y="836.2" font-size="11" font-family="ui-sans-serif, system-ui, sans-serif" fill="#222" text-anchor="middle">⇧8</text><rect x="720.0" y="811.0" width="54.0" height="54.0" rx="6" ry="6" fill="#f5f5f7" stroke="#777" stroke-width="1"/><text x="747.0" y="842.0" font-size="11" font-family="ui-sans-serif, system-ui, sans-serif" fill="#222" text-anchor="middle">⇧9</text><rect x="778.0" y="822.6" width="54.0" height="54.0" rx="6" ry="6" fill="#f5f5f7" stroke="#777" stroke-width="1"/><text x="805.0" y="853.6" font-size="11" font-family="ui-sans-serif, system-ui, sans-serif" fill="#222" text-anchor="middle">⇧0</text><rect x="836.0" y="822.6" width="54.0" height="54.0" rx="6" ry="6" fill="#f5f5f7" stroke="#777" stroke-width="1"/><text x="863.0" y="853.6" font-size="11" font-family="ui-sans-serif, system-ui, sans-serif" fill="#222" text-anchor="middle">BSpc</text><rect x="24.0" y="898.0" width="54.0" height="54.0" rx="6" ry="6" fill="#f5f5f7" stroke="#777" stroke-width="1"/><text x="51.0" y="929.0" font-size="11" font-family="ui-sans-serif, system-ui, sans-serif" fill="#222" text-anchor="middle">Alt</text><rect x="82.0" y="898.0" width="54.0" height="54.0" rx="6" ry="6" fill="#fafafa" stroke="#777" stroke-width="1"/><text x="109.0" y="929.0" font-size="11" font-family="ui-sans-serif, system-ui, sans-serif" fill="#bbb" text-anchor="middle">▽</text><rect x="140.0" y="886.4" width="54.0" height="54.0" rx="6" ry="6" fill="#fafafa" stroke="#777" stroke-width="1"/><text x="167.0" y="917.4" font-size="11" font-family="ui-sans-serif, system-ui, sans-serif" fill="#bbb" text-anchor="middle">▽</text><rect x="198.0" y="880.6" width="54.0" height="54.0" rx="6" ry="6" fill="#fafafa" stroke="#777" stroke-width="1"/><text x="225.0" y="911.6" font-size="11" font-family="ui-sans-serif, system-ui, sans-serif" fill="#bbb" text-anchor="middle">▽</text><rect x="256.0" y="886.4" width="54.0" height="54.0" rx="6" ry="6" fill="#fafafa" stroke="#777" stroke-width="1"/><text x="283.0" y="917.4" font-size="11" font-family="ui-sans-serif, system-ui, sans-serif" fill="#bbb" text-anchor="middle">▽</text><rect x="314.0" y="892.2" width="54.0" height="54.0" rx="6" ry="6" fill="#fafafa" stroke="#777" stroke-width="1"/><text x="341.0" y="923.2" font-size="11" font-family="ui-sans-serif, system-ui, sans-serif" fill="#bbb" text-anchor="middle">▽</text><rect x="372.0" y="921.2" width="54.0" height="54.0" rx="6" ry="6" fill="#f5f5f7" stroke="#777" stroke-width="1"/><text x="399.0" y="952.2" font-size="11" font-family="ui-sans-serif, system-ui, sans-serif" fill="#222" text-anchor="middle">Alt</text><rect x="488.0" y="921.2" width="54.0" height="54.0" rx="6" ry="6" fill="#f5f5f7" stroke="#777" stroke-width="1"/><text x="515.0" y="952.2" font-size="11" font-family="ui-sans-serif, system-ui, sans-serif" fill="#222" text-anchor="middle">Alt</text><rect x="546.0" y="892.2" width="54.0" height="54.0" rx="6" ry="6" fill="#f5f5f7" stroke="#777" stroke-width="1"/><text x="573.0" y="923.2" font-size="11" font-family="ui-sans-serif, system-ui, sans-serif" fill="#222" text-anchor="middle">←</text><rect x="604.0" y="886.4" width="54.0" height="54.0" rx="6" ry="6" fill="#f5f5f7" stroke="#777" stroke-width="1"/><text x="631.0" y="917.4" font-size="11" font-family="ui-sans-serif, system-ui, sans-serif" fill="#222" text-anchor="middle">↑</text><rect x="662.0" y="880.6" width="54.0" height="54.0" rx="6" ry="6" fill="#f5f5f7" stroke="#777" stroke-width="1"/><text x="689.0" y="911.6" font-size="11" font-family="ui-sans-serif, system-ui, sans-serif" fill="#222" text-anchor="middle">↓</text><rect x="720.0" y="886.4" width="54.0" height="54.0" rx="6" ry="6" fill="#f5f5f7" stroke="#777" stroke-width="1"/><text x="747.0" y="917.4" font-size="11" font-family="ui-sans-serif, system-ui, sans-serif" fill="#222" text-anchor="middle">→</text><rect x="778.0" y="898.0" width="54.0" height="54.0" rx="6" ry="6" fill="#f5f5f7" stroke="#777" stroke-width="1"/><text x="805.0" y="929.0" font-size="11" font-family="ui-sans-serif, system-ui, sans-serif" fill="#222" text-anchor="middle">#</text><rect x="836.0" y="898.0" width="54.0" height="54.0" rx="6" ry="6" fill="#f5f5f7" stroke="#777" stroke-width="1"/><text x="863.0" y="929.0" font-size="11" font-family="ui-sans-serif, system-ui, sans-serif" fill="#222" text-anchor="middle">`</text><rect x="24.0" y="973.4" width="54.0" height="54.0" rx="6" ry="6" fill="#f5f5f7" stroke="#777" stroke-width="1"/><text x="51.0" y="1004.4" font-size="11" font-family="ui-sans-serif, system-ui, sans-serif" fill="#222" text-anchor="middle">Sft</text><rect x="82.0" y="973.4" width="54.0" height="54.0" rx="6" ry="6" fill="#f5f5f7" stroke="#777" stroke-width="1"/><text x="109.0" y="1004.4" font-size="11" font-family="ui-sans-serif, system-ui, sans-serif" fill="#222" text-anchor="middle">[</text><rect x="140.0" y="961.8" width="54.0" height="54.0" rx="6" ry="6" fill="#f5f5f7" stroke="#777" stroke-width="1"/><text x="167.0" y="992.8" font-size="11" font-family="ui-sans-serif, system-ui, sans-serif" fill="#222" text-anchor="middle">=</text><rect x="198.0" y="956.0" width="54.0" height="54.0" rx="6" ry="6" fill="#f5f5f7" stroke="#777" stroke-width="1"/><text x="225.0" y="987.0" font-size="11" font-family="ui-sans-serif, system-ui, sans-serif" fill="#222" text-anchor="middle">]</text><rect x="256.0" y="961.8" width="54.0" height="54.0" rx="6" ry="6" fill="#f5f5f7" stroke="#777" stroke-width="1"/><text x="283.0" y="992.8" font-size="11" font-family="ui-sans-serif, system-ui, sans-serif" fill="#222" text-anchor="middle">-</text><rect x="314.0" y="967.6" width="54.0" height="54.0" rx="6" ry="6" fill="#f5f5f7" stroke="#777" stroke-width="1"/><text x="341.0" y="998.6" font-size="11" font-family="ui-sans-serif, system-ui, sans-serif" fill="#222" text-anchor="middle">#</text><rect x="546.0" y="961.8" width="54.0" height="54.0" rx="6" ry="6" fill="#f5f5f7" stroke="#777" stroke-width="1"/><text x="573.0" y="992.8" font-size="11" font-family="ui-sans-serif, system-ui, sans-serif" fill="#222" text-anchor="middle">⇧\_</text><rect x="604.0" y="956.0" width="54.0" height="54.0" rx="6" ry="6" fill="#f5f5f7" stroke="#777" stroke-width="1"/><text x="631.0" y="987.0" font-size="11" font-family="ui-sans-serif, system-ui, sans-serif" fill="#222" text-anchor="middle">⇧-</text><rect x="662.0" y="950.2" width="54.0" height="54.0" rx="6" ry="6" fill="#f5f5f7" stroke="#777" stroke-width="1"/><text x="689.0" y="981.2" font-size="11" font-family="ui-sans-serif, system-ui, sans-serif" fill="#222" text-anchor="middle">⇧]</text><rect x="720.0" y="956.0" width="54.0" height="54.0" rx="6" ry="6" fill="#f5f5f7" stroke="#777" stroke-width="1"/><text x="747.0" y="987.0" font-size="11" font-family="ui-sans-serif, system-ui, sans-serif" fill="#222" text-anchor="middle">⇧#</text><rect x="778.0" y="967.6" width="54.0" height="54.0" rx="6" ry="6" fill="#f5f5f7" stroke="#777" stroke-width="1"/><text x="805.0" y="998.6" font-size="11" font-family="ui-sans-serif, system-ui, sans-serif" fill="#222" text-anchor="middle">Sft</text><rect x="836.0" y="967.6" width="54.0" height="54.0" rx="6" ry="6" fill="#f5f5f7" stroke="#777" stroke-width="1"/><text x="863.0" y="998.6" font-size="11" font-family="ui-sans-serif, system-ui, sans-serif" fill="#222" text-anchor="middle">`</text><rect x="256.0" y="1048.8" width="54.0" height="54.0" rx="6" ry="6" fill="#f5f5f7" stroke="#777" stroke-width="1"/><text x="283.0" y="1079.8" font-size="11" font-family="ui-sans-serif, system-ui, sans-serif" fill="#222" text-anchor="middle">Ctrl</text><rect x="314.0" y="1048.8" width="54.0" height="54.0" rx="6" ry="6" fill="#fafafa" stroke="#777" stroke-width="1"/><rect x="372.0" y="1019.8" width="54.0" height="83.0" rx="6" ry="6" fill="#f5f5f7" stroke="#777" stroke-width="1"/><text x="399.0" y="1065.3" font-size="11" font-family="ui-sans-serif, system-ui, sans-serif" fill="#222" text-anchor="middle">Spc</text><rect x="488.0" y="1019.8" width="54.0" height="83.0" rx="6" ry="6" fill="#f5f5f7" stroke="#777" stroke-width="1"/><text x="515.0" y="1065.3" font-size="11" font-family="ui-sans-serif, system-ui, sans-serif" fill="#222" text-anchor="middle">Ent</text><rect x="546.0" y="1048.8" width="54.0" height="54.0" rx="6" ry="6" fill="#fafafa" stroke="#777" stroke-width="1"/><rect x="604.0" y="1048.8" width="54.0" height="54.0" rx="6" ry="6" fill="#f5f5f7" stroke="#777" stroke-width="1"/><text x="631.0" y="1079.8" font-size="11" font-family="ui-sans-serif, system-ui, sans-serif" fill="#222" text-anchor="middle">Alt</text></svg>