<svg xmlns="http://www.w3.org/2000/svg" width="1034" height="1151" viewBox="0 0 1034 1151"><rect width="100%" height="100%" fill="#ffffff"/><text x="24" y="28" font-size="18" font-weight="700" font-family="ui-sans-serif, system-ui, sans-serif" fill="#111">Corne v4 keymap</text><text x="24.0" y="40.0" font-size="15" font-weight="600" font-family="ui-sans-serif, system-ui, sans-serif" fill="#111">Layer 0</text><rect x="24.0" y="67.4" width="54.0" height="54.0" rx="6" ry="6" fill="#f5f5f7" stroke="#777" stroke-width="1"/><text x="51.0" y="98.4" font-size="11" font-family="ui-sans-serif, system-ui, sans-serif" fill="#222" text-anchor="middle">Tab</text><rect x="82.0" y="67.4" width="54.0" height="54.0" rx="6" ry="6" fill="#f5f5f7" stroke="#777" stroke-width="1"/><text x="109.0" y="98.4" font-size="11" font-family="ui-sans-serif, system-ui, sans-serif" fill="#222" text-anchor="middle">Q</text><rect x="140.0" y="55.8" width="54.0" height="54.0" rx="6" ry="6" fill="#f5f5f7" stroke="#777" stroke-width="1"/><text x="167.0" y="86.8" font-size="11" font-family="ui-sans-serif, system-ui, sans-serif" fill="#222" text-anchor="middle">W</text><rect x="198.0" y="50.0" width="54.0" height="54.0" rx="6" ry="6" fill="#f5f5f7" stroke="#777" stroke-width="1"/><text x="225.0" y="81.0" font-size="11" font-family="ui-sans-serif, system-ui, sans-serif" fill="#222" text-anchor="middle">E</text><rect x="256.0" y="55.8" width="54.0" height="54.0" rx="6" ry="6" fill="#f5f5f7" stroke="#777" stroke-width="1"/><text x="283.0" y="86.8" font-size="11" font-family="ui-sans-serif, system-ui, sans-serif" fill="#222" text-anchor="middle">R</text><rect x="314.0" y="61.6" width="54.0" height="54.0" rx="6" ry="6" fill="#f5f5f7" stroke="#777" stroke-width="1"/><text x="341.0" y="92.6" font-size="11" font-family="ui-sans-serif, system-ui, sans-serif" fill="#222" text-anchor="middle">T</text><rect x="372.0" y="90.6" width="54.0" height="54.0" rx="6" ry="6" fill="#f5f5f7" stroke="#777" stroke-width="1"/><text x="399.0" y="121.6" font-size="9" font-family="ui-sans-serif, system-ui, sans-serif" fill="#222" text-anchor="middle">Ctl/Esc</text><rect x="488.0" y="90.6" width="54.0" height="54.0" rx="6" ry="6" fill="#f5f5f7" stroke="#777" stroke-width="1"/><text x="515.0" y="121.6" font-size="11" font-family="ui-sans-serif, system-ui, sans-serif" fill="#222" text-anchor="middle">Click</text><rect x="662.0" y="61.6" width="54.0" height="54.0" rx="6" ry="6" fill="#f5f5f7" stroke="#777" stroke-width="1"/><text x="689.0" y="92.6" font-size="11" font-family="ui-sans-serif, system-ui, sans-serif" fill="#222" text-anchor="middle">Y</text><rect x="720.0" y="55.8" width="54.0" height="54.0" rx="6" ry="6" fill="#f5f5f7" stroke="#777" stroke-width="1"/><text x="747.0" y="86.8" font-size="11" font-family="ui-sans-serif, system-ui, sans-serif" fill="#222" text-anchor="middle">U</text><rect x="778.0" y="50.0" width="54.0" height="54.0" rx="6" ry="6" fill="#f5f5f7" stroke="#777" stroke-width="1"/><text x="805.0" y="81.0" font-size="11" font-family="ui-sans-serif, system-ui, sans-serif" fill="#222" text-anchor="middle">I</text><rect x="836.0" y="55.8" width="54.0" height="54.0" rx="6" ry="6" fill="#f5f5f7" stroke="#777" stroke-width="1"/><text x="863.0" y="86.8" font-size="11" font-family="ui-sans-serif, system-ui, sans-serif" fill="#222" text-anchor="middle">O</text><rect x="894.0" y="67.4" width="54.0" height="54.0" rx="6" ry="6" fill="#f5f5f7" stroke="#777" stroke-width="1"/><text x="921.0" y="98.4" font-size="11" font-family="ui-sans-serif, system-ui, sans-serif" fill="#222" text-anchor="middle">P</text><rect x="952.0" y="67.4" width="54.0" height="54.0" rx="6" ry="6" fill="#f5f5f7" stroke="#777" stroke-width="1"/><text x="979.0" y="98.4" font-size="11" font-family="ui-sans-serif, system-ui, sans-serif" fill="#222" text-anchor="middle">-</text><rect x="24.0" y="142.8" width="54.0" height="54.0" rx="6" ry="6" fill="#f5f5f7" stroke="#777" stroke-width="1"/><text x="51.0" y="173.8" font-size="11" font-family="ui-sans-serif, system-ui, sans-serif" fill="#222" text-anchor="middle">GUI</text><rect x="82.0" y="142.8" width="54.0" height="54.0" rx="6" ry="6" fill="#f5f5f7" stroke="#777" stroke-width="1"/><text x="109.0" y="173.8" font-size="11" font-family="ui-sans-serif, system-ui, sans-serif" fill="#222" text-anchor="middle">A</text><rect x="140.0" y="131.2" width="54.0" height="54.0" rx="6" ry="6" fill="#f5f5f7" stroke="#777" stroke-width="1"/><text x="167.0" y="162.2" font-size="11" font-family="ui-sans-serif, system-ui, sans-serif" fill="#222" text-anchor="middle">S</text><rect x="198.0" y="125.4" width="54.0" height="54.0" rx="6" ry="6" fill="#f5f5f7" stroke="#777" stroke-width="1"/><text x="225.0" y="156.4" font-size="11" font-family="ui-sans-serif, system-ui, sans-serif" fill="#222" text-anchor="middle">D</text><rect x="256.0" y="131.2" width="54.0" height="54.0" rx="6" ry="6" fill="#f5f5f7" stroke="#777" stroke-width="1"/><text x="283.0" y="162.2" font-size="11" font-family="ui-sans-serif, system-ui, sans-serif" fill="#222" text-anchor="middle">F</text><rect x="314.0" y="137.0" width="54.0" height="54.0" rx="6" ry="6" fill="#f5f5f7" stroke="#777" stroke-width="1"/><text x="341.0" y="168.0" font-size="11" font-family="ui-sans-serif, system-ui, sans-serif" fill="#222" text-anchor="middle">G</text><rect x="372.0" y="166.0" width="54.0" height="54.0" rx="6" ry="6" fill="#f5f5f7" stroke="#777" stroke-width="1"/><text x="399.0" y="197.0" font-size="11" font-family="ui-sans-serif, system-ui, sans-serif" fill="#222" text-anchor="middle">LANG1</text><rect x="488.0" y="166.0" width="54.0" height="54.0" rx="6" ry="6" fill="#f5f5f7" stroke="#777" stroke-width="1"/><text x="515.0" y="197.0" font-size="11" font-family="ui-sans-serif, system-ui, sans-serif" fill="#222" text-anchor="middle">LANG2</text><rect x="546.0" y="137.0" width="54.0" height="54.0" rx="6" ry="6" fill="#f5f5f7" stroke="#777" stroke-width="1"/><text x="573.0" y="168.0" font-size="11" font-family="ui-sans-serif, system-ui, sans-serif" fill="#222" text-anchor="middle">H</text><rect x="604.0" y="131.2" width="54.0" height="54.0" rx="6" ry="6" fill="#f5f5f7" stroke="#777" stroke-width="1"/><text x="631.0" y="162.2" font-size="11" font-family="ui-sans-serif, system-ui, sans-serif" fill="#222" text-anchor="middle">J</text><rect x="662.0" y="125.4" width="54.0" height="54.0" rx="6" ry="6" fill="#f5f5f7" stroke="#777" stroke-width="1"/><text x="689.0" y="156.4" font-size="11" font-family="ui-sans-serif, system-ui, sans-serif" fill="#222" text-anchor="middle">K</text><rect x="720.0" y="131.2" width="54.0" height="54.0" rx="6" ry="6" fill="#f5f5f7" stroke="#777" stroke-width="1"/><text x="747.0" y="162.2" font-size="11" font-family="ui-sans-serif, system-ui, sans-serif" fill="#222" text-anchor="middle">L</text><rect x="778.0" y="142.8" width="54.0" height="54.0" rx="6" ry="6" fill="#f5f5f7" stroke="#777" stroke-width="1"/><text x="805.0" y="173.8" font-size="11" font-family="ui-sans-serif, system-ui, sans-serif" fill="#222" text-anchor="middle">;</text><rect x="836.0" y="142.8" width="54.0" height="54.0" rx="6" ry="6" fill="#f5f5f7" stroke="#777" stroke-width="1"/><text x="863.0" y="173.8" font-size="11" font-family="ui-sans-serif, system-ui, sans-serif" fill="#222" text-anchor="middle">&#x27;</text><rect x="24.0" y="218.2" width="54.0" height="54.0" rx="6" ry="6" fill="#f5f5f7" stroke="#777" stroke-width="1"/><text x="51.0" y="249.2" font-size="11" font-family="ui-sans-serif, system-ui, sans-serif" fill="#222" text-anchor="middle">Sft</text><rect x="82.0" y="218.2" width="54.0" height="54.0" rx="6" ry="6" fill="#f5f5f7" stroke="#777" stroke-width="1"/><text x="109.0" y="249.2" font-size="11" font-family="ui-sans-serif, system-ui, sans-serif" fill="#222" text-anchor="middle">Z</text><rect x="140.0" y="206.6" width="54.0" height="54.0" rx="6" ry="6" fill="#f5f5f7" stroke="#777" stroke-width="1"/><text x="167.0" y="237.6" font-size="11" font-family="ui-sans-serif, system-ui, sans-serif" fill="#222" text-anchor="middle">X</text><rect x="198.0" y="200.8" width="54.0" height="54.0" rx="6" ry="6" fill="#f5f5f7" stroke="#777" stroke-width="1"/><text x="225.0" y="231.8" font-size="11" font-family="ui-sans-serif, system-ui, sans-serif" fill="#222" text-anchor="middle">C</text><rect x="256.0" y="206.6" width="54.0" height="54.0" rx="6" ry="6" fill="#f5f5f7" stroke="#777" stroke-width="1"/><text x="283.0" y="237.6" font-size="11" font-family="ui-sans-serif, system-ui, sans-serif" fill="#222" text-anchor="middle">V</text><rect x="314.0" y="212.4" width="54.0" height="54.0" rx="6" ry="6" fill="#f5f5f7" stroke="#777" stroke-width="1"/><text x="341.0" y="243.4" font-size="11" font-family="ui-sans-serif, system-ui, sans-serif" fill="#222" text-anchor="middle">B</text><rect x="546.0" y="206.6" width="54.0" height="54.0" rx="6" ry="6" fill="#f5f5f7" stroke="#777" stroke-width="1"/><text x="573.0" y="237.6" font-size="11" font-family="ui-sans-serif, system-ui, sans-serif" fill="#222" text-anchor="middle">N</text><rect x="604.0" y="200.8" width="54.0" height="54.0" rx="6" ry="6" fill="#f5f5f7" stroke="#777" stroke-width="1"/><text x="631.0" y="231.8" font-size="11" font-family="ui-sans-serif, system-ui, sans-serif" fill="#222" text-anchor="middle">M</text><rect x="662.0" y="195.0" width="54.0" height="54.0" rx="6" ry="6" fill="#f5f5f7" stroke="#777" stroke-width="1"/><text x="689.0" y="226.0" font-size="11" font-family="ui-sans-serif, system-ui, sans-serif" fill="#222" text-anchor="middle">,</text><rect x="720.0" y="200.8" width="54.0" height="54.0" rx="6" ry="6" fill="#f5f5f7" stroke="#777" stroke-width="1"/><text x="747.0" y="231.8" font-size="11" font-family="ui-sans-serif, system-ui, sans-serif" fill="#222" text-anchor="middle">.</text><rect x="778.0" y="212.4" width="54.0" height="54.0" rx="6" ry="6" fill="#f5f5f7" stroke="#777" stroke-width="1"/><text x="805.0" y="243.4" font-size="11" font-family="ui-sans-serif, system-ui, sans-serif" fill="#222" text-anchor="middle">/</text><rect x="836.0" y="212.4" width="54.0" height="54.0" rx="6" ry="6" fill="#f5f5f7" stroke="#777" stroke-width="1"/><text x="863.0" y="243.4" font-size="11" font-family="ui-sans-serif, system-ui, sans-serif" fill="#222" text-anchor="middle">[</text><rect x="256.0" y="293.6" width="54.0" height="54.0" rx="6" ry="6" fill="#f5f5f7" stroke="#777" stroke-width="1"/><text x="283.0" y="324.6" font-size="11" font-family="ui-sans-serif, system-ui, sans-serif" fill="#222" text-anchor="middle">Ctrl</text><rect x="314.0" y="293.6" width="54.0" height="54.0" rx="6" ry="6" fill="#e8f0fe" stroke="#4a78c0" stroke-width="1"/><text x="341.0" y="324.6" font-size="9" font-family="ui-sans-serif, system-ui, sans-serif" fill="#222" text-anchor="middle">L1/Spc</text><rect x="372.0" y="264.6" width="54.0" height="83.0" rx="6" ry="6" fill="#f5f5f7" stroke="#777" stroke-width="1"/><text x="399.0" y="310.1" font-size="11" font-family="ui-sans-serif, system-ui, sans-serif" fill="#222" text-anchor="middle">BSpc</text><rect x="488.0" y="264.6" width="54.0" height="83.0" rx="6" ry="6" fill="#f5f5f7" stroke="#777" stroke-width="1"/><text x="515.0" y="310.1" font-size="11" font-family="ui-sans-serif, system-ui, sans-serif" fill="#222" text-anchor="middle">Ent</text><rect x="546.0" y="293.6" width="54.0" height="54.0" rx="6" ry="6" fill="#e8f0fe" stroke="#4a78c0" stroke-width="1"/><text x="573.0" y="324.6" font-size="9" font-family="ui-sans-serif, system-ui, sans-serif" fill="#222" text-anchor="middle">L2/Tab</text><rect x="604.0" y="293.6" width="54.0" height="54.0" rx="6" ry="6" fill="#f5f5f7" stroke="#777" stroke-width="1"/><text x="631.0" y="324.6" font-size="11" font-family="ui-sans-serif, system-ui, sans-serif" fill="#222" text-anchor="middle">Alt</text><circle cx="573.0" cy="117.6" r="25.0" fill="#eef5ff" stroke="#4a78c0" stroke-width="1.2"/><text x="573.0" y="111.6" font-size="14" font-family="ui-sans-serif, system-ui, sans-serif" fill="#4a78c0" text-anchor="middle">↺</text><text x="573.0" y="129.6" font-size="10" font-family="ui-sans-serif, system-ui, sans-serif" fill="#222" text-anchor="middle">Wh↓</text><circle cx="631.0" cy="117.6" r="25.0" fill="#eef5ff" stroke="#4a78c0" stroke-width="1.2"/><text x="631.0" y="111.6" font-size="14" font-family="ui-sans-serif, system-ui, sans-serif" fill="#4a78c0" text-anchor="middle">↻</text><text x="631.0" y="129.6" font-size="10" font-family="ui-sans-serif, system-ui, sans-serif" fill="#222" text-anchor="middle">Wh↑</text><text x="24.0" y="407.6" font-size="15" font-weight="600" font-family="ui-sans-serif, system-ui, sans-serif" fill="#111">Layer 1</text><rect x="24.0" y="435.0" width="54.0" height="54.0" rx="6" ry="6" fill="#f5f5f7" stroke="#777" stroke-width="1"/><text x="51.0" y="466.0" font-size="11" font-family="ui-sans-serif, system-ui, sans-serif" fill="#222" text-anchor="middle">Tab</text><rect x="82.0" y="435.0" width="54.0" height="54.0" rx="6" ry="6" fill="#f5f5f7" stroke="#777" stroke-width="1"/><text x="109.0" y="466.0" font-size="11" font-family="ui-sans-serif, system-ui, sans-serif" fill="#222" text-anchor="middle">F1</text><rect x="140.0" y="423.4" width="54.0" height="54.0" rx="6" ry="6" fill="#f5f5f7" stroke="#777" stroke-width="1"/><text x="167.0" y="454.4" font-size="11" font-family="ui-sans-serif, system-ui, sans-serif" fill="#222" text-anchor="middle">F2</text><rect x="198.0" y="417.6" width="54.0" height="54.0" rx="6" ry="6" fill="#f5f5f7" stroke="#777" stroke-width="1"/><text x="225.0" y="448.6" font-size="11" font-family="ui-sans-serif, system-ui, sans-serif" fill="#222" text-anchor="middle">F3</text><rect x="256.0" y="423.4" width="54.0" height="54.0" rx="6" ry="6" fill="#f5f5f7" stroke="#777" stroke-width="1"/><text x="283.0" y="454.4" font-size="11" font-family="ui-sans-serif, system-ui, sans-serif" fill="#222" text-anchor="middle">F4</text><rect x="314.0" y="429.2" width="54.0" height="54.0" rx="6" ry="6" fill="#f5f5f7" stroke="#777" stroke-width="1"/><text x="341.0" y="460.2" font-size="11" font-family="ui-sans-serif, system-ui, sans-serif" fill="#222" text-anchor="middle">F5</text><rect x="372.0" y="458.2" width="54.0" height="54.0" rx="6" ry="6" fill="#fafafa" stroke="#777" stroke-width="1"/><text x="399.0" y="489.2" font-size="11" font-family="ui-sans-serif, system-ui, sans-serif" fill="#bbb" text-anchor="middle">▽</text><rect x="488.0" y="458.2" width="54.0" height="54.0" rx="6" ry="6" fill="#f5f5f7" stroke="#777" stroke-width="1"/><text x="515.0" y="489.2" font-size="11" font-family="ui-sans-serif, system-ui, sans-serif" fill="#222" text-anchor="middle">RClk</text><rect x="662.0" y="429.2" width="54.0" height="54.0" rx="6" ry="6" fill="#f5f5f7" stroke="#777" stroke-width="1"/><text x="689.0" y="460.2" font-size="11" font-family="ui-sans-serif, system-ui, sans-serif" fill="#222" text-anchor="middle">/</text><rect x="720.0" y="423.4" width="54.0" height="54.0" rx="6" ry="6" fill="#f5f5f7" stroke="#777" stroke-width="1"/><text x="747.0" y="454.4" font-size="11" font-family="ui-sans-serif, system-ui, sans-serif" fill="#222" text-anchor="middle">-</text><rect x="778.0" y="417.6" width="54.0" height="54.0" rx="6" ry="6" fill="#f5f5f7" stroke="#777" stroke-width="1"/><text x="805.0" y="448.6" font-size="11" font-family="ui-sans-serif, system-ui, sans-serif" fill="#222" text-anchor="middle">&#x27;</text><rect x="836.0" y="423.4" width="54.0" height="54.0" rx="6" ry="6" fill="#f5f5f7" stroke="#777" stroke-width="1"/><text x="863.0" y="454.4" font-size="11" font-family="ui-sans-serif, system-ui, sans-serif" fill="#222" text-anchor="middle">;</text><rect x="894.0" y="435.0" width="54.0" height="54.0" rx="6" ry="6" fill="#f5f5f7" stroke="#777" stroke-width="1"/><text x="921.0" y="466.0" font-size="11" font-family="ui-sans-serif, system-ui, sans-serif" fill="#222" text-anchor="middle">¥</text><rect x="952.0" y="435.0" width="54.0" height="54.0" rx="6" ry="6" fill="#f5f5f7" stroke="#777" stroke-width="1"/><text x="979.0" y="466.0" font-size="11" font-family="ui-sans-serif, system-ui, sans-serif" fill="#222" text-anchor="middle">=</text><rect x="24.0" y="510.4" width="54.0" height="54.0" rx="6" ry="6" fill="#f5f5f7" stroke="#777" stroke-width="1"/><text x="51.0" y="541.4" font-size="11" font-family="ui-sans-serif, system-ui, sans-serif" fill="#222" text-anchor="middle">GUI</text><rect x="82.0" y="510.4" width="54.0" height="54.0" rx="6" ry="6" fill="#f5f5f7" stroke="#777" stroke-width="1"/><text x="109.0" y="541.4" font-size="11" font-family="ui-sans-serif, system-ui, sans-serif" fill="#222" text-anchor="middle">1</text><rect x="140.0" y="498.8" width="54.0" height="54.0" rx="6" ry="6" fill="#f5f5f7" stroke="#777" stroke-width="1"/><text x="167.0" y="529.8" font-size="11" font-family="ui-sans-serif, system-ui, sans-serif" fill="#222" text-anchor="middle">2</text><rect x="198.0" y="493.0" width="54.0" height="54.0" rx="6" ry="6" fill="#f5f5f7" stroke="#777" stroke-width="1"/><text x="225.0" y="524.0" font-size="11" font-family="ui-sans-serif, system-ui, sans-serif" fill="#222" text-anchor="middle">3</text><rect x="256.0" y="498.8" width="54.0" height="54.0" rx="6" ry="6" fill="#f5f5f7" stroke="#777" stroke-width="1"/><text x="283.0" y="529.8" font-size="11" font-family="ui-sans-serif, system-ui, sans-serif" fill="#222" text-anchor="middle">4</text><rect x="314.0" y="504.6" width="54.0" height="54.0" rx="6" ry="6" fill="#f5f5f7" stroke="#777" stroke-width="1"/><text x="341.0" y="535.6" font-size="11" font-family="ui-sans-serif, system-ui, sans-serif" fill="#222" text-anchor="middle">5</text><rect x="372.0" y="533.6" width="54.0" height="54.0" rx="6" ry="6" fill="#fafafa" stroke="#777" stroke-width="1"/><text x="399.0" y="564.6" font-size="11" font-family="ui-sans-serif, system-ui, sans-serif" fill="#bbb" text-anchor="middle">▽</text><rect x="488.0" y="533.6" width="54.0" height="54.0" rx="6" ry="6" fill="#f5f5f7" stroke="#777" stroke-width="1"/><text x="515.0" y="564.6" font-size="11" font-family="ui-sans-serif, system-ui, sans-serif" fill="#222" text-anchor="middle">Ins</text><rect x="546.0" y="504.6" width="54.0" height="54.0" rx="6" ry="6" fill="#f5f5f7" stroke="#777" stroke-width="1"/><text x="573.0" y="535.6" font-size="11" font-family="ui-sans-serif, system-ui, sans-serif" fill="#222" text-anchor="middle">6</text><rect x="604.0" y="498.8" width="54.0" height="54.0" rx="6" ry="6" fill="#f5f5f7" stroke="#777" stroke-width="1"/><text x="631.0" y="529.8" font-size="11" font-family="ui-sans-serif, system-ui, sans-serif" fill="#222" text-anchor="middle">7</text><rect x="662.0" y="493.0" width="54.0" height="54.0" rx="6" ry="6" fill="#f5f5f7" stroke="#777" stroke-width="1"/><text x="689.0" y="524.0" font-size="11" font-family="ui-sans-serif, system-ui, sans-serif" fill="#222" text-anchor="middle">8</text><rect x="720.0" y="498.8" width="54.0" height="54.0" rx="6" ry="6" fill="#f5f5f7" stroke="#777" stroke-width="1"/><text x="747.0" y="529.8" font-size="11" font-family="ui-sans-serif, system-ui, sans-serif" fill="#222" text-anchor="middle">9</text><rect x="778.0" y="510.4" width="54.0" height="54.0" rx="6" ry="6" fill="#f5f5f7" stroke="#777" stroke-width="1"/><text x="805.0" y="541.4" font-size="11" font-family="ui-sans-serif, system-ui, sans-serif" fill="#222" text-anchor="middle">0</text><rect x="836.0" y="510.4" width="54.0" height="54.0" rx="6" ry="6" fill="#f5f5f7" stroke="#777" stroke-width="1"/><text x="863.0" y="541.4" font-size="11" font-family="ui-sans-serif, system-ui, sans-serif" fill="#222" text-anchor="middle">=</text><rect x="24.0" y="585.8" width="54.0" height="54.0" rx="6" ry="6" fill="#f5f5f7" stroke="#777" stroke-width="1"/><text x="51.0" y="616.8" font-size="11" font-family="ui-sans-serif, system-ui, sans-serif" fill="#222" text-anchor="middle">Sft</text><rect x="82.0" y="585.8" width="54.0" height="54.0" rx="6" ry="6" fill="#f5f5f7" stroke="#777" stroke-width="1"/><text x="109.0" y="616.8" font-size="11" font-family="ui-sans-serif, system-ui, sans-serif" fill="#222" text-anchor="middle">F6</text><rect x="140.0" y="574.2" width="54.0" height="54.0" rx="6" ry="6" fill="#f5f5f7" stroke="#777" stroke-width="1"/><text x="167.0" y="605.2" font-size="11" font-family="ui-sans-serif, system-ui, sans-serif" fill="#222" text-anchor="middle">F7</text><rect x="198.0" y="568.4" width="54.0" height="54.0" rx="6" ry="6" fill="#f5f5f7" stroke="#777" stroke-width="1"/><text x="225.0" y="599.4" font-size="11" font-family="ui-sans-serif, system-ui, sans-serif" fill="#222" text-anchor="middle">F8</text><rect x="256.0" y="574.2" width="54.0" height="54.0" rx="6" ry="6" fill="#f5f5f7" stroke="#777" stroke-width="1"/><text x="283.0" y="605.2" font-size="11" font-family="ui-sans-serif, system-ui, sans-serif" fill="#222" text-anchor="middle">F9</text><rect x="314.0" y="580.0" width="54.0" height="54.0" rx="6" ry="6" fill="#f5f5f7" stroke="#777" stroke-width="1"/><text x="341.0" y="611.0" font-size="11" font-family="ui-sans-serif, system-ui, sans-serif" fill="#222" text-anchor="middle">F10</text><rect x="546.0" y="574.2" width="54.0" height="54.0" rx="6" ry="6" fill="#f5f5f7" stroke="#777" stroke-width="1"/><text x="573.0" y="605.2" font-size="11" font-family="ui-sans-serif, system-ui, sans-serif" fill="#222" text-anchor="middle">F11</text><rect x="604.0" y="568.4" width="54.0" height="54.0" rx="6" ry="6" fill="#f5f5f7" stroke="#777" stroke-width="1"/><text x="631.0" y="599.4" font-size="11" font-family="ui-sans-serif, system-ui, sans-serif" fill="#222" text-anchor="middle">F12</text><rect x="662.0" y="562.6" width="54.0" height="54.0" rx="6" ry="6" fill="#fafafa" stroke="#777" stroke-width="1"/><text x="689.0" y="593.6" font-size="11" font-family="ui-sans-serif, system-ui, sans-serif" fill="#bbb" text-anchor="middle">▽</text><rect x="720.0" y="568.4" width="54.0" height="54.0" rx="6" ry="6" fill="#fafafa" stroke="#777" stroke-width="1"/><text x="747.0" y="599.4" font-size="11" font-family="ui-sans-serif, system-ui, sans-serif" fill="#bbb" text-anchor="middle">▽</text><rect x="778.0" y="580.0" width="54.0" height="54.0" rx="6" ry="6" fill="#fafafa" stroke="#777" stroke-width="1"/><text x="805.0" y="611.0" font-size="11" font-family="ui-sans-serif, system-ui, sans-serif" fill="#bbb" text-anchor="middle">▽</text><rect x="836.0" y="580.0" width="54.0" height="54.0" rx="6" ry="6" fill="#fafafa" stroke="#777" stroke-width="1"/><text x="863.0" y="611.0" font-size="11" font-family="ui-sans-serif, system-ui, sans-serif" fill="#bbb" text-anchor="middle">▽</text><rect x="256.0" y="661.2" width="54.0" height="54.0" rx="6" ry="6" fill="#f5f5f7" stroke="#777" stroke-width="1"/><text x="283.0" y="692.2" font-size="11" font-family="ui-sans-serif, system-ui, sans-serif" fill="#222" text-anchor="middle">Ctrl</text><rect x="314.0" y="661.2" width="54.0" height="54.0" rx="6" ry="6" fill="#fafafa" stroke="#777" stroke-width="1"/><rect x="372.0" y="632.2" width="54.0" height="83.0" rx="6" ry="6" fill="#f5f5f7" stroke="#777" stroke-width="1"/><text x="399.0" y="677.7" font-size="11" font-family="ui-sans-serif, system-ui, sans-serif" fill="#222" text-anchor="middle">Ms↑</text><rect x="488.0" y="632.2" width="54.0" height="83.0" rx="6" ry="6" fill="#f5f5f7" stroke="#777" stroke-width="1"/><text x="515.0" y="677.7" font-size="11" font-family="ui-sans-serif, system-ui, sans-serif" fill="#222" text-anchor="middle">Ms↓</text><rect x="546.0" y="661.2" width="54.0" height="54.0" rx="6" ry="6" fill="#fafafa" stroke="#777" stroke-width="1"/><rect x="604.0" y="661.2" width="54.0" height="54.0" rx="6" ry="6" fill="#f5f5f7" stroke="#777" stroke-width="1"/><text x="631.0" y="692.2" font-size="11" font-family="ui-sans-serif, system-ui, sans-serif" fill="#222" text-anchor="middle">Alt</text><circle cx="573.0" cy="485.2" r="25.0" fill="#eef5ff" stroke="#4a78c0" stroke-width="1.2"/><text x="573.0" y="479.2" font-size="14" font-family="ui-sans-serif, system-ui, sans-serif" fill="#4a78c0" text-anchor="middle">↺</text><text x="573.0" y="497.2" font-size="10" font-family="ui-sans-serif, system-ui, sans-serif" fill="#222" text-anchor="middle">Ms←</text><circle cx="631.0" cy="485.2" r="25.0" fill="#eef5ff" stroke="#4a78c0" stroke-width="1.2"/><text x="631.0" y="479.2" font-size="14" font-family="ui-sans-serif, system-ui, sans-serif" fill="#4a78c0" text-anchor="middle">↻</text><text x="631.0" y="497.2" font-size="10" font-family="ui-sans-serif, system-ui, sans-serif" fill="#222" text-anchor="middle">Ms→</text><text x="24.0" y="775.2" font-size="15" font-weight="600" font-family="ui-sans-serif, system-ui, sans-serif" fill="#111">Layer 2</text><rect x="24.0" y="802.6" width="54.0" height="54.0" rx="6" ry="6" fill="#f5f5f7" stroke="#777" stroke-width="1"/><text x="51.0" y="833.6" font-size="11" font-family="ui-sans-serif, system-ui, sans-serif" fill="#222" text-anchor="middle">Tab</text><rect x="82.0" y="802.6" width="54.0" height="54.0" rx="6" ry="6" fill="#f5f5f7" stroke="#777" stroke-width="1"/><text x="109.0" y="833.6" font-size="11" font-family="ui-sans-serif, system-ui, sans-serif" fill="#222" text-anchor="middle">⇧1</text><rect x="140.0" y="791.0" width="54.0" height="54.0" rx="6" ry="6" fill="#f5f5f7" stroke="#777" stroke-width="1"/><text x="167.0" y="822.0" font-size="11" font-family="ui-sans-serif, system-ui, sans-serif" fill="#222" text-anchor="middle">⇧2</text><rect x="198.0" y="785.2" width="54.0" height="54.0" rx="6" ry="6" fill="#f5f5f7" stroke="#777" stroke-width="1"/><text x="225.0" y="816.2" font-size="11" font-family="ui-sans-serif, system-ui, sans-serif" fill="#222" text-anchor="middle">⇧3</text><rect x="256.0" y="791.0" width="54.0" height="54.0" rx="6" ry="6" fill="#f5f5f7" stroke="#777" stroke-width="1"/><text x="283.0" y="822.0" font-size="11" font-family="ui-sans-serif, system-ui, sans-serif" fill="#222" text-anchor="middle">⇧4</text><rect x="314.0" y="796.8" width="54.0" height="54.0" rx="6" ry="6" fill="#f5f5f7" stroke="#777" stroke-width="1"/><text x="341.0" y="827.8" font-size="11" font-family="ui-sans-serif, system-ui, sans-serif" fill="#222" text-anchor="middle">⇧5</text><rect x="372.0" y="825.8" width="54.0" height="54.0" rx="6" ry="6" fill="#f5f5f7" stroke="#777" stroke-width="1"/><text x="399.0" y="856.8" font-size="11" font-family="ui-sans-serif, system-ui, sans-serif" fill="#222" text-anchor="middle">Ctrl</text><rect x="488.0" y="825.8" width="54.0" height="54.0" rx="6" ry="6" fill="#f5f5f7" stroke="#777" stroke-width="1"/><text x="515.0" y="856.8" font-size="11" font-family="ui-sans-serif, system-ui, sans-serif" fill="#222" text-anchor="middle">Ctrl</text><rect x="662.0" y="796.8" width="54.0" height="54.0" rx="6" ry="6" fill="#f5f5f7" stroke="#777" stroke-width="1"/><text x="689.0" y="827.8" font-size="11" font-family="ui-sans-serif, system-ui, sans-serif" fill="#222" text-anchor="middle">⇧6</text><rect x="720.0" y="791.0" width="54.0" height="54.0" rx="6" ry="6" fill="#f5f5f7" stroke="#777" stroke-width="1"/><text x="747.0" y="822.0" font-size="11" font-family="ui-sans-serif, system-ui, sans-serif" fill="#222" text-anchor="middle">⇧7</text><rect x="778.0" y="785.2" width="54.0" height="54.0" rx="6" ry="6" fill="#f5f5f7" stroke="#777" stroke-width="1"/><text x="805.0" y="816.2" font-size="11" font-family="ui-sans-serif, system-ui, sans-serif" fill="#222" text-anchor="middle">⇧8</text><rect x="836.0" y="791.0" width="54.0" height="54.0" rx="6" ry="6" fill="#f5f5f7" stroke="#777" stroke-width="1"/><text x="863.0" y="822.0" font-size="11" font-family="ui-sans-serif, system-ui, sans-serif" fill="#222" text-anchor="middle">⇧9</text><rect x="894.0" y="802.6" width="54.0" height="54.0" rx="6" ry="6" fill="#f5f5f7" stroke="#777" stroke-width="1"/><text x="921.0" y="833.6" font-size="11" font-family="ui-sans-serif, system-ui, sans-serif" fill="#222" text-anchor="middle">⇧0</text><rect x="952.0" y="802.6" width="54.0" height="54.0" rx="6" ry="6" fill="#fafafa" stroke="#777" stroke-width="1"/><text x="979.0" y="833.6" font-size="11" font-family="ui-sans-serif, system-ui, sans-serif" fill="#bbb" text-anchor="middle">▽</text><rect x="24.0" y="878.0" width="54.0" height="54.0" rx="6" ry="6" fill="#f5f5f7" stroke="#777" stroke-width="1"/><text x="51.0" y="909.0" font-size="11" font-family="ui-sans-serif, system-ui, sans-serif" fill="#222" text-anchor="middle">GUI</text><rect x="82.0" y="878.0" width="54.0" height="54.0" rx="6" ry="6" fill="#fafafa" stroke="#777" stroke-width="1"/><text x="109.0" y="909.0" font-size="11" font-family="ui-sans-serif, system-ui, sans-serif" fill="#bbb" text-anchor="middle">▽</text><rect x="140.0" y="866.4" width="54.0" height="54.0" rx="6" ry="6" fill="#fafafa" stroke="#777" stroke-width="1"/><text x="167.0" y="897.4" font-size="11" font-family="ui-sans-serif, system-ui, sans-serif" fill="#bbb" text-anchor="middle">▽</text><rect x="198.0" y="860.6" width="54.0" height="54.0" rx="6" ry="6" fill="#fafafa" stroke="#777" stroke-width="1"/><text x="225.0" y="891.6" font-size="11" font-family="ui-sans-serif, system-ui, sans-serif" fill="#bbb" text-anchor="middle">▽</text><rect x="256.0" y="866.4" width="54.0" height="54.0" rx="6" ry="6" fill="#fafafa" stroke="#777" stroke-width="1"/><text x="283.0" y="897.4" font-size="11" font-family="ui-sans-serif, system-ui, sans-serif" fill="#bbb" text-anchor="middle">▽</text><rect x="314.0" y="872.2" width="54.0" height="54.0" rx="6" ry="6" fill="#fafafa" stroke="#777" stroke-width="1"/><text x="341.0" y="903.2" font-size="11" font-family="ui-sans-serif, system-ui, sans-serif" fill="#bbb" text-anchor="middle">▽</text><rect x="372.0" y="901.2" width="54.0" height="54.0" rx="6" ry="6" fill="#f5f5f7" stroke="#777" stroke-width="1"/><text x="399.0" y="932.2" font-size="11" font-family="ui-sans-serif, system-ui, sans-serif" fill="#222" text-anchor="middle">Alt</text><rect x="488.0" y="901.2" width="54.0" height="54.0" rx="6" ry="6" fill="#f5f5f7" stroke="#777" stroke-width="1"/><text x="515.0" y="932.2" font-size="11" font-family="ui-sans-serif, system-ui, sans-serif" fill="#222" text-anchor="middle">Alt</text><rect x="546.0" y="872.2" width="54.0" height="54.0" rx="6" ry="6" fill="#f5f5f7" stroke="#777" stroke-width="1"/><text x="573.0" y="903.2" font-size="11" font-family="ui-sans-serif, system-ui, sans-serif" fill="#222" text-anchor="middle">←</text><rect x="604.0" y="866.4" width="54.0" height="54.0" rx="6" ry="6" fill="#f5f5f7" stroke="#777" stroke-width="1"/><text x="631.0" y="897.4" font-size="11" font-family="ui-sans-serif, system-ui, sans-serif" fill="#222" text-anchor="middle">↓</text><rect x="662.0" y="860.6" width="54.0" height="54.0" rx="6" ry="6" fill="#f5f5f7" stroke="#777" stroke-width="1"/><text x="689.0" y="891.6" font-size="11" font-family="ui-sans-serif, system-ui, sans-serif" fill="#222" text-anchor="middle">↑</text><rect x="720.0" y="866.4" width="54.0" height="54.0" rx="6" ry="6" fill="#f5f5f7" stroke="#777" stroke-width="1"/><text x="747.0" y="897.4" font-size="11" font-family="ui-sans-serif, system-ui, sans-serif" fill="#222" text-anchor="middle">→</text><rect x="778.0" y="878.0" width="54.0" height="54.0" rx="6" ry="6" fill="#f5f5f7" stroke="#777" stroke-width="1"/><text x="805.0" y="909.0" font-size="11" font-family="ui-sans-serif, system-ui, sans-serif" fill="#222" text-anchor="middle">#</text><rect x="836.0" y="878.0" width="54.0" height="54.0" rx="6" ry="6" fill="#f5f5f7" stroke="#777" stroke-width="1"/><text x="863.0" y="909.0" font-size="11" font-family="ui-sans-serif, system-ui, sans-serif" fill="#222" text-anchor="middle">`</text><rect x="24.0" y="953.4" width="54.0" height="54.0" rx="6" ry="6" fill="#f5f5f7" stroke="#777" stroke-width="1"/><text x="51.0" y="984.4" font-size="11" font-family="ui-sans-serif, system-ui, sans-serif" fill="#222" text-anchor="middle">Sft</text><rect x="82.0" y="953.4" width="54.0" height="54.0" rx="6" ry="6" fill="#f5f5f7" stroke="#777" stroke-width="1"/><text x="109.0" y="984.4" font-size="11" font-family="ui-sans-serif, system-ui, sans-serif" fill="#222" text-anchor="middle">[</text><rect x="140.0" y="941.8" width="54.0" height="54.0" rx="6" ry="6" fill="#f5f5f7" stroke="#777" stroke-width="1"/><text x="167.0" y="972.8" font-size="11" font-family="ui-sans-serif, system-ui, sans-serif" fill="#222" text-anchor="middle">=</text><rect x="198.0" y="936.0" width="54.0" height="54.0" rx="6" ry="6" fill="#f5f5f7" stroke="#777" stroke-width="1"/><text x="225.0" y="967.0" font-size="11" font-family="ui-sans-serif, system-ui, sans-serif" fill="#222" text-anchor="middle">]</text><rect x="256.0" y="941.8" width="54.0" height="54.0" rx="6" ry="6" fill="#f5f5f7" stroke="#777" stroke-width="1"/><text x="283.0" y="972.8" font-size="11" font-family="ui-sans-serif, system-ui, sans-serif" fill="#222" text-anchor="middle">-</text><rect x="314.0" y="947.6" width="54.0" height="54.0" rx="6" ry="6" fill="#f5f5f7" stroke="#777" stroke-width="1"/><text x="341.0" y="978.6" font-size="11" font-family="ui-sans-serif, system-ui, sans-serif" fill="#222" text-anchor="middle">#</text><rect x="546.0" y="941.8" width="54.0" height="54.0" rx="6" ry="6" fill="#f5f5f7" stroke="#777" stroke-width="1"/><text x="573.0" y="972.8" font-size="11" font-family="ui-sans-serif, system-ui, sans-serif" fill="#222" text-anchor="middle">⇧\_</text><rect x="604.0" y="936.0" width="54.0" height="54.0" rx="6" ry="6" fill="#f5f5f7" stroke="#777" stroke-width="1"/><text x="631.0" y="967.0" font-size="11" font-family="ui-sans-serif, system-ui, sans-serif" fill="#222" text-anchor="middle">⇧-</text><rect x="662.0" y="930.2" width="54.0" height="54.0" rx="6" ry="6" fill="#f5f5f7" stroke="#777" stroke-width="1"/><text x="689.0" y="961.2" font-size="11" font-family="ui-sans-serif, system-ui, sans-serif" fill="#222" text-anchor="middle">⇧]</text><rect x="720.0" y="936.0" width="54.0" height="54.0" rx="6" ry="6" fill="#f5f5f7" stroke="#777" stroke-width="1"/><text x="747.0" y="967.0" font-size="11" font-family="ui-sans-serif, system-ui, sans-serif" fill="#222" text-anchor="middle">⇧#</text><rect x="778.0" y="947.6" width="54.0" height="54.0" rx="6" ry="6" fill="#fafafa" stroke="#777" stroke-width="1"/><text x="805.0" y="978.6" font-size="11" font-family="ui-sans-serif, system-ui, sans-serif" fill="#bbb" text-anchor="middle">▽</text><rect x="836.0" y="947.6" width="54.0" height="54.0" rx="6" ry="6" fill="#f5f5f7" stroke="#777" stroke-width="1"/><text x="863.0" y="978.6" font-size="11" font-family="ui-sans-serif, system-ui, sans-serif" fill="#222" text-anchor="middle">`</text><rect x="256.0" y="1028.8" width="54.0" height="54.0" rx="6" ry="6" fill="#f5f5f7" stroke="#777" stroke-width="1"/><text x="283.0" y="1059.8" font-size="11" font-family="ui-sans-serif, system-ui, sans-serif" fill="#222" text-anchor="middle">Ctrl</text><rect x="314.0" y="1028.8" width="54.0" height="54.0" rx="6" ry="6" fill="#fafafa" stroke="#777" stroke-width="1"/><rect x="372.0" y="999.8" width="54.0" height="83.0" rx="6" ry="6" fill="#f5f5f7" stroke="#777" stroke-width="1"/><text x="399.0" y="1045.3" font-size="11" font-family="ui-sans-serif, system-ui, sans-serif" fill="#222" text-anchor="middle">Spc</text><rect x="488.0" y="999.8" width="54.0" height="83.0" rx="6" ry="6" fill="#f5f5f7" stroke="#777" stroke-width="1"/><text x="515.0" y="1045.3" font-size="11" font-family="ui-sans-serif, system-ui, sans-serif" fill="#222" text-anchor="middle">Ent</text><rect x="546.0" y="1028.8" width="54.0" height="54.0" rx="6" ry="6" fill="#fafafa" stroke="#777" stroke-width="1"/><rect x="604.0" y="1028.8" width="54.0" height="54.0" rx="6" ry="6" fill="#f5f5f7" stroke="#777" stroke-width="1"/><text x="631.0" y="1059.8" font-size="11" font-family="ui-sans-serif, system-ui, sans-serif" fill="#222" text-anchor="middle">Alt</text><circle cx="573.0" cy="852.8" r="25.0" fill="#eef5ff" stroke="#4a78c0" stroke-width="1.2"/><text x="573.0" y="846.8" font-size="14" font-family="ui-sans-serif, system-ui, sans-serif" fill="#4a78c0" text-anchor="middle">↺</text><text x="573.0" y="864.8" font-size="10" font-family="ui-sans-serif, system-ui, sans-serif" fill="#222" text-anchor="middle">Ms↓</text><circle cx="631.0" cy="852.8" r="25.0" fill="#eef5ff" stroke="#4a78c0" stroke-width="1.2"/><text x="631.0" y="846.8" font-size="14" font-family="ui-sans-serif, system-ui, sans-serif" fill="#4a78c0" text-anchor="middle">↻</text><text x="631.0" y="864.8" font-size="10" font-family="ui-sans-serif, system-ui, sans-serif" fill="#222" text-anchor="middle">Ms↑</text></svg>